<svg xmlns="http://www.w3.org/2000/svg" viewBox="12 42 168 85" role="img" aria-label="DVD">
  <g fill="currentColor" fill-rule="evenodd" clip-rule="evenodd">
    <path d="M153.906 45.77h-34.775s-9.211 10.908-10.922 12.967C99.031 69.792 97.406 72.753 97.131 73.52c.037-.77-.293-3.763-4.208-14.938a3408.517 3408.517 0 0 1-4.398-12.812h-11.89l-.003-.036-28.88.036H25.974l-2.204 9.274 16.433.006h3.858c10.564 0 17.017 4.249 15.225 11.796-1.95 8.215-11.186 11.795-20.996 11.795h-3.689l4.787-20.162H22.954L15.96 87.921h23.312c17.526 0 34.188-9.253 37.123-21.075.539-2.168.461-7.594-.861-10.826a2.748 2.748 0 0 0-.19-.482c-.05-.104-.094-.583.181-.689.154-.056.438.243.471.329.138.36.245.63.245.63l14.831 41.875 37.759-42.618 15.998-.015h3.855c10.566 0 17.074 4.249 15.283 11.796-1.953 8.215-11.242 11.795-21.053 11.795h-3.688l4.789-20.162h-16.438l-6.994 29.442h23.312c17.523 0 34.303-9.224 37.119-21.075 2.818-11.852-9.494-21.076-27.108-21.076z" />
    <path d="M91.663 97.861c-44.361 0-80.324 5.098-80.324 11.387 0 6.287 35.963 11.385 80.324 11.385 44.358 0 80.323-5.098 80.323-11.385 0-6.289-35.965-11.387-80.323-11.387zm-2.908 15.407c-10.129 0-18.339-1.703-18.339-3.797s8.21-3.793 18.339-3.793c10.13 0 18.343 1.699 18.343 3.793s-8.213 3.797-18.343 3.797z" />
  </g>
</svg>
