<svg xmlns="http://www.w3.org/2000/svg" viewBox="0 0 32 32" role="img" aria-label="W">
  <path
    fill="#1a1a1a"
    d="M3.5 26.5
       L6.2 7.5
       Q7 4.5 8.2 10.5
       Q9.4 16.5 11 8.5
       Q12.6 2.5 14.8 9.5
       Q15.8 13.5 16 6.5
       Q16.2 13.5 17.2 9.5
       Q19.4 2.5 21 8.5
       Q22.6 16.5 23.8 10.5
       Q25 4.5 25.8 7.5
       L28.5 26.5
       L24.8 26.5
       Q24 15.5 22.6 13.5
       Q21.2 11.5 20.2 17.5
       Q19.2 23.5 16 14.5
       Q12.8 23.5 11.8 17.5
       Q10.8 11.5 9.4 13.5
       Q8 15.5 7.2 26.5
       Z"
  />
</svg>
